<svg xmlns:xlink="http://www.w3.org/1999/xlink" xmlns="http://www.w3.org/2000/svg" width="145" height="28" viewBox="0 0 145 28" fill="none">
<path d="M25.6945 12.3499H16.6396V27.8798H25.6945V12.3499Z" fill="white"/>
<path d="M38.1905 0H21.5513V7.76498H38.1905V0Z" fill="white"/>
<path d="M16.6392 4.08618H0V11.8511H16.6392V4.08618Z" fill="white"/>
<path fill-rule="evenodd" clip-rule="evenodd" d="M66.5883 9.02124H70.1852L78.6018 27.9857H74.974L72.8899 23.1906H63.6273L61.5371 27.9857H58.1407L66.5883 9.02124ZM123.615 9.02989H127.255L134.325 21.8996H134.44L141.523 9.02989H144.854V27.9943H141.418V15.5051H141.276L134.338 27.9943H134.162L127.255 15.5051H127.098V27.9943H123.615V9.02989ZM51.8669 27.9943H48.3842V14.6751H41.1284V11.8568H51.8669V27.9943ZM51.8669 11.8568V9.03854H60.9627V11.8568H51.8669ZM78.7377 9.02989V11.5744H85.2864V28.0001H88.7691V11.5744H95.3208V9.02989H78.7377ZM114.359 24.1792C114.442 23.9761 114.477 23.759 114.463 23.5421V9.02989H117.959V23.3894C117.959 26.1298 115.952 28.0001 113.019 28.0001H104.892C101.956 28.0001 99.9521 26.1241 99.9521 23.3894V9.02989H103.435V23.5421C103.421 23.759 103.456 23.9761 103.539 24.1792C103.622 24.3823 103.749 24.5667 103.914 24.7203C104.078 24.8739 104.276 24.9932 104.494 25.0703C104.711 25.1473 104.944 25.1805 105.176 25.1674H112.722C112.954 25.1805 113.187 25.1473 113.405 25.0703C113.622 24.9932 113.82 24.8739 113.985 24.7203C114.149 24.5667 114.277 24.3823 114.359 24.1792ZM71.658 20.3722H64.887L68.2247 12.7329H68.3419L71.658 20.3722Z" fill="white"/>
</svg>