<svg xmlns:xlink="http://www.w3.org/1999/xlink" xmlns="http://www.w3.org/2000/svg" width="151" height="30" viewBox="0 0 151 30" fill="none">
<path fill-rule="evenodd" clip-rule="evenodd" d="M14.9257 0.000241135C15.098 -0.00174265 15.2702 0.00851589 15.441 0.0309391L15.4968 0.0382649V2.39898L15.4357 2.40195C10.8697 2.6241 7.35207 4.63082 4.95145 8.36979L4.95114 8.37026C3.38659 10.7609 2.74197 13.6377 3.13679 16.4673L3.13686 16.4678C3.95904 22.6762 8.9661 27.3428 15.0569 27.5683H15.5954L15.5961 27.5684C17.2045 27.5856 18.8005 27.2859 20.293 26.6863C21.7855 26.0868 23.1453 25.1991 24.2947 24.0739L24.2952 24.0735C26.74 21.7306 28.0571 18.7405 28.1952 15.1832L28.1976 15.1219L30.5806 15.1091L30.5819 15.1723C30.6758 19.7172 28.1285 25.5491 22.197 28.471C20.0564 29.5191 17.6969 30.0423 15.3139 29.9973C12.931 29.9523 10.593 29.3404 8.49357 28.2123C6.39411 27.0841 4.59354 25.4722 3.24088 23.5098C1.88826 21.5475 1.02244 19.2913 0.715077 16.9279C0.285661 13.7612 0.894495 10.5407 2.45026 7.74926C3.98781 4.95323 6.38093 2.72352 9.27855 1.38724C10.9287 0.606143 13.407 0.000340223 14.9257 0.000241135ZM15.6228 3.66059C18.6313 3.66549 21.5147 4.86529 23.6387 6.99605C25.7627 9.12689 26.9532 12.0142 26.9484 15.0229C26.9436 18.0315 25.7438 20.915 23.6129 23.039C21.4821 25.163 18.5948 26.3536 15.5861 26.3487C12.5547 26.3487 9.62777 25.1364 7.70007 23.0994L7.65918 23.0562L8.02783 22.6503L9.27903 21.2834L9.32644 21.3301C10.5652 22.5511 12.1346 23.3824 13.8406 23.7211C15.5467 24.0599 17.3146 23.8914 18.9259 23.2363C20.5372 22.5813 21.9212 21.4685 22.9069 20.0354C23.8927 18.6023 24.4369 16.9118 24.4723 15.1728C24.5078 13.4339 24.0329 11.7226 23.1064 10.2506C22.1798 8.77852 20.8423 7.61024 19.259 6.89009C17.6757 6.16995 15.9162 5.92951 14.1977 6.19849C12.4793 6.46748 10.8774 7.2341 9.58988 8.4036L9.54664 8.44288L8.7077 7.67703L7.77358 6.83218L7.82248 6.78449C9.90661 4.75175 12.7117 3.62836 15.6228 3.66059ZM11.7291 8.20503C12.9157 7.5279 14.2589 7.17323 15.6251 7.17629C16.7652 7.17423 17.8917 7.42446 18.9238 7.90904C22.091 9.38632 23.4569 12.4777 23.4051 14.798L23.4037 14.8607H21.0031L21.0004 14.7994C20.963 13.941 20.7223 13.1038 20.298 12.3567C19.8736 11.6096 19.2779 10.974 18.5598 10.5023L18.5589 10.5016C17.6966 9.91314 16.6754 9.60148 15.6315 9.60822L15.6311 9.60823C15.3939 9.60845 15.1569 9.62339 14.9214 9.65296C13.6288 9.81359 12.4387 10.4392 11.5735 11.413C10.7083 12.3867 10.227 13.6421 10.2196 14.9447L10.2196 14.945C10.1928 17.3994 12.0128 20.1329 15.4433 20.4133L15.5023 20.4181V22.7757H15.1848C13.1615 22.7757 10.2987 21.5376 8.77879 18.8231C8.1116 17.6308 7.76816 16.2847 7.78267 14.9185C7.79717 13.5524 8.1691 12.2138 8.86146 11.036C9.55382 9.85819 10.5425 8.88217 11.7291 8.20503ZM17.9276 14.8918C17.9276 16.2474 16.8287 17.3463 15.4731 17.3463C14.1175 17.3463 13.0186 16.2474 13.0186 14.8918C13.0186 13.5362 14.1175 12.4373 15.4731 12.4373C16.8287 12.4373 17.9276 13.5362 17.9276 14.8918ZM17.7749 14.8918C17.7749 16.163 16.7443 17.1936 15.4731 17.1936C15.1689 17.1936 14.8784 17.1346 14.6126 17.0273C14.8783 17.1345 15.1686 17.1934 15.4727 17.1934C16.7439 17.1934 17.7745 16.1629 17.7745 14.8916C17.7745 13.9371 17.1934 13.1182 16.3657 12.7695C17.1936 13.1181 17.7749 13.9371 17.7749 14.8918Z" fill="white"/>
<path fill-rule="evenodd" clip-rule="evenodd" d="M126.812 7.43811C125.282 7.43811 123.909 7.76486 122.689 8.41626C121.469 9.06778 120.514 9.97473 119.821 11.1381C119.144 12.2862 118.804 13.602 118.804 15.0886C118.804 16.6327 119.137 17.9621 119.8 19.0811C120.465 20.1887 121.357 21.0319 122.477 21.6128C123.461 22.1228 124.53 22.4096 125.685 22.4728L125.795 22.4788L125.794 22.4874H132.348L132.348 15.8946H129.445V19.8478H126.316L126.313 19.8477C125.598 19.8126 124.932 19.6352 124.318 19.3151L124.316 19.3143C123.623 18.939 123.068 18.3905 122.651 17.6719L122.651 17.6705C122.246 16.9484 122.047 16.0793 122.047 15.0675C122.047 14.0963 122.254 13.2347 122.672 12.4859C123.089 11.7376 123.673 11.161 124.421 10.7577C125.17 10.3405 126.024 10.1333 126.981 10.1333C128.467 10.1333 129.742 10.6757 130.801 11.756L132.84 9.87401C132.147 9.09611 131.298 8.49928 130.292 8.08348C129.252 7.65385 128.093 7.43811 126.812 7.43811ZM138.931 8.4162C137.725 9.06779 136.777 9.96789 136.084 11.1175C135.406 12.2519 135.066 13.5325 135.066 14.9621C135.066 16.3916 135.406 17.6793 136.084 18.8279C136.776 19.9633 137.725 20.8564 138.931 21.5081C140.151 22.1595 141.517 22.4862 143.033 22.4862C144.549 22.4862 145.909 22.1595 147.114 21.5083C148.32 20.8565 149.269 19.9632 149.961 18.8276C150.653 17.679 151 16.3914 151 14.9621C151 13.5328 150.653 12.2524 149.961 11.118L149.961 11.1175C149.269 9.96782 148.32 9.06763 147.114 8.41602C145.909 7.76479 144.549 7.43811 143.033 7.43811C141.517 7.43811 140.151 7.76476 138.931 8.4162ZM78.7754 7.69107V22.2332H89.3756V19.6645H81.9765V7.69107H78.7754ZM89.5176 7.69107V10.2598H94.2395V22.2332H97.4406V10.2598H102.162V7.69107H89.5176ZM105.13 7.69107V22.2332H116.342V19.7067H108.31V16.0778H115.161V13.6356H108.31V10.2176H116.068V7.69107H105.13ZM140.619 10.7587C141.339 10.3412 142.145 10.1333 143.033 10.1333C143.922 10.1333 144.727 10.3412 145.447 10.7587C146.167 11.162 146.729 11.7314 147.132 12.4649C147.549 13.1992 147.757 14.0326 147.757 14.9621C147.757 15.8917 147.549 16.7251 147.132 17.4593C146.729 18.1928 146.167 18.769 145.448 19.1863L145.446 19.1871C144.726 19.5903 143.921 19.791 143.033 19.791C142.145 19.791 141.34 19.5903 140.62 19.1871L140.619 19.1863C139.899 18.7691 139.331 18.1932 138.914 17.4603L138.913 17.4589C138.51 16.7246 138.31 15.8914 138.31 14.9621C138.31 14.0328 138.51 13.1997 138.913 12.4654L138.914 12.464C139.331 11.731 139.899 11.1619 140.619 10.7587ZM41.2383 7.71695V22.2591H44.2286V13.3206L48.717 20.6992H50.135L54.6442 13.1254L54.666 22.2591H57.6562L57.6147 7.71695H54.9786L49.4797 16.9882L43.8956 7.71695H41.2383ZM66.5824 7.71695L60.1008 22.2591H63.3638L64.6708 19.0971H71.6648L72.9717 22.2591H76.3189L69.8165 7.71695H66.5824ZM68.1783 10.6823L70.6782 16.7181H65.6784L68.1783 10.6823Z" fill="white"/>
</svg>