<svg xmlns:xlink="http://www.w3.org/1999/xlink" xmlns="http://www.w3.org/2000/svg" width="250" height="36" fill="none"><path d="M144.98 14.84a6.44 6.44 0 0 0-6.42-6.42h-8.88v19.1h3v-16.1h5.88a3.42 3.42 0 0 1 .62 6.78l-2.28.4 6.06 8.91h3.64l-4.84-7.12a6.4 6.4 0 0 0 3.22-5.55ZM105.9 16.46H95.74V8.42h-3.01v19.1h3v-8.05h10.15v8.04h3.01V8.42h-3v8.04ZM112.45 27.51h14.09v-3h-11.09v-5.04h9.97v-3.01h-9.97v-5.03h11.09v-3h-14.09V27.5ZM67.77 8.42h3v19.1h-3V8.41ZM83.75 8.42h-8.89v19.1h3.02v-6.26h5.87a6.42 6.42 0 1 0 0-12.84Zm3.41 6.42a3.42 3.42 0 0 1-3.4 3.41h-5.89v-6.82h5.88a3.42 3.42 0 0 1 3.41 3.4ZM179.72 14.84a6.43 6.43 0 0 0-6.42-6.42h-8.88v19.1h3v-16.1h5.88a3.42 3.42 0 0 1 .63 6.78l-2.28.4 6.06 8.91h3.64l-4.85-7.12a6.4 6.4 0 0 0 3.22-5.55ZM146.12 11.48h6.47v16.01h3.07V11.48h6.47V8.4h-16v3.08ZM235.35 11.43v-3h-14.09V27.5h14.1v-3h-11.1v-5.04h9.97v-3.01h-9.96v-5.03h11.08ZM193.53 8.42h-3.11l-7.88 19.1h3.25l6.18-14.98 6.18 14.97h3.25l-7.77-18.84-.1-.25ZM57.67 11.24c1.8.01 3.52.73 4.79 2l.12.12 2.2-2.2-.12-.13a9.86 9.86 0 1 0 0 13.94l.13-.12-2.21-2.2-.12.12a6.76 6.76 0 1 1-4.77-11.52h-.02ZM211.06 11.24c1.8.01 3.51.73 4.78 2l.12.12 2.2-2.2-.12-.13a9.87 9.87 0 1 0 0 13.96l.13-.12-2.2-2.2-.13.12a6.75 6.75 0 1 1-4.78-11.5v-.05Z" fill="#fff"/><path d="m189.38 27.51 3.56-8.64-.93-2.26-4.5 10.9h1.87Z" fill="#F79E1D"/><path d="M40.22 34.02h-.18v-32h.18V34Z" fill="#555250"/><path d="M31.66 24.16v-.32h.13v-.06h-.33v.06h.13v.32h.07Zm.63 0v-.38h-.1l-.11.27-.12-.27h-.1v.38h.07v-.29l.11.25h.07l.12-.25v.3h.06Z" fill="#fff"/><path d="M12.26 10.21h8.66v15.6h-8.66v-15.6Z" fill="#F16122"/><path d="M12.81 18.01a9.92 9.92 0 0 1 3.78-7.8 9.92 9.92 0 1 0 0 15.6 9.92 9.92 0 0 1-3.78-7.8Z" fill="#E91D25"/><path d="M32.6 18.01a9.89 9.89 0 0 1-16 7.8 9.92 9.92 0 0 0 0-15.6 9.89 9.89 0 0 1 16 7.8Z" fill="#F79E1D"/></svg>