<svg version="1.2" xmlns="http://www.w3.org/2000/svg" viewBox="0 0 460 234" width="460" height="234">
	<style>
		.s0 { fill: #367bf0 } 
	</style>
	<path fill-rule="evenodd" class="s0" d="m448.63 0.52c6.44 1.77 11 7.65 11.13 14.34v202.55c0 2.01-0.2 3.98-0.9 5.88-2.16 5.99-7.78 9.97-14.13 10.03h-353.81c-0.63-0.02-2.02-0.02-2.02-0.02v-15.65h354.31c0.28-1.04 0.35-198.92 0.09-200.45-0.92-0.21-424.58-0.29-426.19-0.07-0.27 0.91-0.34 198.76-0.06 200.44h52.55l0.06 15.65c0 0-36.03 0.09-53.52 0.06-8.35-0.02-14.94-6.59-15.18-15.01v-202.17c0-2.06 0.2-4.04 0.9-6.01 2.13-6.03 7.76-10.08 14.18-10.13h427.4c1.76 0 3.47 0.09 5.17 0.54zm-359.66 173.8v1.47c-1.01 0.28-17.42 0.33-18.91 0.07v-116.01h18.88c0.06 3.66 0 7.34 0 11v44.24c0.43-0.4 0.69-0.61 0.89-0.83q22.59-26.65 45.13-53.34c0.74-0.87 1.45-1.2 2.57-1.2 6.11 0.07 12.22 0.03 18.34 0.03h1.7c-3.06 3.62-5.93 6.98-8.82 10.33q-4.31 5.07-8.67 10.16-4.35 5.07-8.69 10.15-4.35 5.08-8.71 10.13c-2.9 3.43-5.8 6.79-8.8 10.27 14.92 21.74 29.79 43.34 44.73 65.1-0.36 0.08-0.58 0.15-0.81 0.15q-10.12-0.01-20.25 0.02c-0.79 0-1.11-0.4-1.47-0.94q-9.63-13.88-19.28-27.82-7.86-11.32-15.73-22.67c-0.26-0.38-0.54-0.74-0.87-1.17-0.38 0.28-0.68 0.49-0.99 0.72-3.08 2.52-6.17 5.06-9.29 7.53-0.75 0.58-1 1.22-1 2.13v40.47zm100.74 1.65h-19.71c-0.01-0.06-0.07-0.08-0.07-0.13v-0.12c0-0.08 0-0.2 0.06-0.26q21.52-57.75 43.06-115.52 0.08-0.25 0.28-0.61h20.62c14.46 38.82 28.95 77.64 43.5 116.62h-20.17c-3.85-10.71-7.72-21.42-11.62-32.21h-43.08c-0.2 0-0.43 0.02-0.63 0-0.62-0.08-0.92 0.23-1.1 0.82q-0.7 2.1-1.48 4.19-4.59 13.01-9.16 26.01c-0.14 0.41-0.31 0.78-0.46 1.22zm17.05-48.59h33.84c-0.16-0.54-0.28-0.97-0.41-1.4-1.65-4.81-3.34-9.59-4.97-14.39-3.91-11.56-8.22-22.99-11.38-34.77-0.05-0.2-0.21-0.39-0.41-0.69-0.15 0.54-0.22 0.9-0.33 1.26-1.32 4.72-2.49 9.5-4.05 14.14-3.87 11.53-7.9 22.98-11.87 34.48-0.15 0.43-0.27 0.86-0.42 1.37zm102.55-58.55v90.94c2.81 0.16 5.5 0.04 8.2 0.06 2.74 0.03 5.52 0 8.28 0h32.77v16.16h-67.94c-0.3-0.95-0.38-114.69-0.06-116.14h18.65c0.2 2.97 0.09 5.95 0.09 8.95zm81.09 106.71c0 0.13-0.05 0.23-0.11 0.43h-18.81v-116.08h18.71c0 0 0.08 0.04 0.08 0.07 0 0.03 0.06 0.04 0.06 0.09 0.06 0.19 0.06 0.34 0.06 0.52 0.01 0 0.01 114.97 0.01 114.97z"/>
</svg>